#!OML:ASF E:/inclinewalkrobotboard/Project1/Captureday1/Session1/subject1.ASF
:FULLY-SPECIFIED
:DEGREES
26
root 0 0 0 37.28923248387197 -27.31667434907793 -5.773826667091725
lowerback -21.772412958250573 4.561459507338364 -4.124426963481568
upperback -12.645742780594148 6.269676899487242 2.0544513900063324
thorax -2.0266992472879632 3.590823777318038 5.130864660209184
lowerneck -9.725337522460865 -0.4859099381852786 2.332719550614468
upperneck 36.28986426910352 -2.2411351292667736 1.9684043311390966
head 13.666649618928663 -0.5057087810483376 0.20661820216364846
rclavicle 7.584466496335316E-15 -9.168789533523523E-15
rhumerus -69.02272518057688 -43.497364982638494 42.99991963629609
rradius 9.484400234814778
rwrist 77.21079587562497
rhand 16.821863411242568 -0.4433148455081959
rfingers 7.125019999999982
rthumb 41.55747275834702 -25.170842481408993
lclavicle 2.3164774732185448E-15 -6.769578873744227E-15
lhumerus -39.977299772435046 19.102354741296423 12.025802683460782
lradius 14.468288028205677
lwrist -42.539913308462616
lhand 5.615266336419501 30.56641447558418
lfingers 7.125020000000022
lthumb 30.96558778401353 58.007436138430506
rfemur -74.18874230304323 43.10268179554052 31.62945137860038
rtibia 42.29127733180946
rfoot -42.39990596997396 -17.059575788699156
rtoes 54.359927340760244
lfemur -44.430239333367645 -1.9455935229998769 -31.47305615316253
ltibia 32.211648256185974
lfoot -47.1931464730401 26.714689315793322
ltoes 23.07015773246549
27
root 0 0 0 36.346651538721446 -24.282117761758876 -4.270595842633677
lowerback -21.767910274640627 4.4221168145451255 -3.130551401519849
upperback -12.467130523350013 6.015156332559272 3.06449057730791
thorax -1.9150872747587284 3.3817624948911975 5.627305921666228
lowerneck -10.47581624707309 -2.7845217273875615 0.3952388417266222
upperneck 34.77999452664403 -4.8747957970352065 1.1341305876336913
head 13.131317797257104 -1.943130285030119 -0.03115598187155766
rclavicle 9.04211683172287E-15 -8.857725283356791E-15
rhumerus -60.971304884280165 -42.589195905915794 39.58409390639698
rradius 9.081075220257702
rwrist 76.18567791356656
rhand 17.607077405367722 -1.8802252441755751
rfingers 7.125019999999981
rthumb 42.32203860248569 -26.542953409963438
lclavicle 3.377714782579119E-15 -7.776822442473949E-15
lhumerus -30.081453783783886 16.767822806585702 5.6770023467682975
lradius 17.299103219241562
lwrist -44.83633448535508
lhand 1.5952528610913654 33.05010932682951
lfingers 7.1250200000000214
lthumb 27.118843421301797 61.039932713278816
rfemur -74.12791699964035 38.1581119167237 20.068185353993144
rtibia 41.54183585379042
rfoot -61.4291528542796 -6.747339440895164
rtoes 63.3857537096477
lfemur -40.91624781551708 -3.2767423969590883 -31.949030693546646
ltibia 31.652870309606236
lfoot -42.784782452459815 24.861770891689133
ltoes 19.575348525440333
28
root 0 0 0 35.84184802196261 -19.26057365613394 -3.3902342361943036
lowerback -21.750889831368532 4.20087213708561 -2.6062948561447215
upperback -12.453281239704296 5.718633957977043 3.813395998827893
thorax -1.885510088830225 3.190072473323787 6.082024636414944
lowerneck -10.102017486879573 -3.9878834745177265 -0.5945513029171878
upperneck 34.28062132910208 -6.164916952965609 0.3893676948610789
head 12.815580895402256 -2.6905667978856727 -0.255795154572086
rclavicle 9.234912768422746E-15 -9.219984531735417E-15
rhumerus -49.13571277061944 -40.50921171322128 31.906375160623234
rradius 9.335465190615317
rwrist 73.09326611111065
rhand 18.72485239487102 -3.3998141048919592
rfingers 7.125019999999986
rthumb 43.40172686879613 -27.883705800661097
lclavicle 3.0603805957331024E-15 -8.521752015373635E-15
lhumerus -24.277447519597203 16.296205759320475 3.8053953164646472
lradius 18.280448126647684
lwrist -43.4591395242307
lhand 1.0506876202335678 34.04821189703298
lfingers 7.125020000000023
lthumb 26.5957276304713 62.08996749442113
rfemur -70.35535151964751 29.59866846668328 14.20134374499952
rtibia 41.37860591610864
rfoot -70.74525138322699 -2.160125082987534
rtoes 65.77553396134894
lfemur -37.60087020102629 -4.585279265426021 -31.879758992709352
ltibia 30.88944707251796
lfoot -39.96017783384123 23.05316607787858
ltoes 16.789477428203043
29
root 0 0 0 34.435078696446496 -11.897866428110994 -2.547487516296278
lowerback -21.136815036786174 3.8696806009099842 -2.205563362379122
upperback -12.185399606161377 5.30338494362024 4.534220654247909
thorax -1.8674808226114363 2.9493329803030246 6.5597462508304325
lowerneck -9.283984189129699 -4.917270744467131 -1.3462929928297416
upperneck 33.972902117167266 -7.059250879870471 -0.4772014559658455
head 12.503575059339456 -3.257575785129598 -0.5247413744007592
rclavicle 9.106815430768053E-15 -9.99844799280753E-15
rhumerus -35.2543089541753 -36.76141065280483 22.490181918777573
rradius 10.149157934404695
rwrist 68.12169744259117
rhand 20.30953340051617 -5.205748980814061
rfingers 7.125019999999991
rthumb 44.92064284972052 -29.38641397775696
lclavicle 1.910294851314252E-15 -9.504744621695726E-15
lhumerus -16.917338148121697 16.248918954670835 3.1269777377841663
lradius 18.657650029178008
lwrist -41.18893658680508
lhand 1.6389505919932257 35.03186406709544
lfingers 7.125020000000023
lthumb 27.15879831400442 62.97256841387711
rfemur -66.37351587278363 21.261340448054128 9.488256528102326
rtibia 41.39327335954756
rfoot -77.90735797615022 2.109244406876325
rtoes 67.26271974107512
lfemur -34.500818307451965 -5.913680825611417 -31.797597747373988
ltibia 30.168750026034807
lfoot -37.40966796197251 21.215456169116795
ltoes 13.956318110996344
